<?xml version="1.0" standalone="no"?>
<!DOCTYPE svg PUBLIC "-//W3C//DTD SVG 20010904//EN"
 "http://www.w3.org/TR/2001/REC-SVG-20010904/DTD/svg10.dtd">
<svg version="1.0" xmlns="http://www.w3.org/2000/svg"
 width="500.000000pt" height="500.000000pt" viewBox="0 0 500.000000 500.000000"
 preserveAspectRatio="xMidYMid meet">

<g transform="translate(0.000000,500.000000) scale(0.100000,-0.100000)"
fill="#000000" stroke="none">
<path d="M2350 4598 c-58 -27 -132 -62 -165 -78 -66 -31 -366 -172 -545 -257
-63 -30 -150 -70 -192 -90 l-78 -36 0 -77 c0 -264 -161 -525 -390 -632 l-71
-33 7 -50 c3 -27 8 -59 10 -70 3 -11 9 -51 15 -90 6 -38 14 -95 19 -125 5 -30
14 -89 20 -130 6 -41 15 -100 20 -130 9 -56 24 -157 41 -265 13 -87 13 -86
-18 -79 -39 10 -229 86 -280 112 -23 12 -45 22 -48 22 -3 0 -5 -63 -5 -140 0
-104 -3 -140 -12 -140 -20 0 -389 116 -443 139 -51 22 -78 32 -80 29 -2 -2 14
-28 34 -58 20 -30 63 -98 96 -150 32 -52 85 -135 117 -185 32 -49 57 -92 56
-96 -3 -7 -111 -146 -226 -289 -34 -43 -62 -81 -62 -83 0 -6 144 -62 235 -92
50 -17 267 -82 320 -96 22 -6 51 -15 65 -20 29 -9 300 -75 345 -84 17 -3 53
-10 80 -16 28 -5 69 -12 93 -16 32 -4 48 -13 59 -32 54 -87 133 -204 171 -251
95 -120 308 -323 412 -393 14 -9 44 -30 68 -47 23 -16 45 -30 48 -30 3 0 18
-9 34 -20 35 -25 227 -120 303 -150 l58 -23 72 28 c234 90 484 256 682 452
123 123 186 199 276 334 34 51 65 97 68 101 3 3 98 25 211 48 191 38 379 84
545 131 140 40 472 152 489 165 17 12 14 18 -40 90 -33 42 -68 88 -79 103 -11
14 -48 61 -82 104 -35 44 -63 84 -63 90 1 7 32 59 70 117 38 58 83 128 100
155 17 28 55 87 85 133 59 89 59 91 -20 57 -16 -7 -48 -20 -70 -28 -62 -23
-379 -117 -395 -117 -13 0 -15 22 -12 140 2 77 -1 140 -6 140 -5 0 -37 -14
-73 -31 -87 -42 -308 -129 -329 -129 -4 0 -4 19 0 43 10 56 50 279 55 309 3
13 9 48 15 78 5 30 18 105 30 165 12 61 25 133 30 160 5 28 16 84 24 125 21
97 21 93 -16 109 -62 26 -169 104 -219 159 -113 124 -175 274 -186 450 -5 93
-8 105 -27 112 -24 9 -323 144 -434 196 -41 19 -76 34 -78 34 -2 0 -46 20 -98
45 -53 25 -97 45 -100 45 -2 0 -42 18 -88 39 -167 79 -329 151 -336 150 -4 0
-54 -23 -112 -51z m660 -271 l535 -242 6 -76 c21 -251 147 -467 352 -600 32
-21 63 -39 68 -41 7 -2 -14 -139 -56 -363 -36 -198 -75 -412 -87 -475 -11 -63
-24 -118 -27 -123 -8 -8 -143 -48 -148 -43 -3 2 94 545 142 791 8 44 15 87 15
96 0 9 -22 26 -52 40 -81 37 -206 166 -252 259 -40 83 -66 186 -66 270 l0 55
-472 214 c-260 118 -482 216 -493 218 -12 2 -209 -85 -474 -211 l-454 -215 -3
-86 c-4 -93 -32 -194 -80 -280 -41 -75 -157 -185 -236 -226 -44 -22 -68 -40
-68 -51 0 -10 24 -178 54 -375 76 -500 74 -483 63 -483 -5 0 -41 9 -78 20 -54
16 -70 26 -74 43 -2 12 -16 101 -30 197 -14 96 -44 291 -65 432 -22 142 -40
261 -40 267 0 5 31 27 70 50 221 131 360 358 379 620 l6 84 500 238 c275 130
507 237 515 238 8 0 256 -109 550 -242z m-75 -302 l430 -194 8 -68 c9 -88 41
-193 80 -267 39 -74 159 -202 226 -241 28 -16 51 -37 51 -45 0 -8 -27 -159
-59 -335 -33 -176 -67 -365 -76 -420 -10 -55 -21 -104 -25 -108 -7 -8 -172
-48 -177 -43 -1 1 11 40 26 86 42 124 55 220 48 362 -11 248 -93 439 -267 622
-542 569 -1490 295 -1656 -479 -20 -91 -20 -289 0 -381 8 -38 26 -101 40 -139
14 -38 24 -70 23 -72 -5 -4 -232 48 -239 55 -4 4 -30 160 -58 347 -27 187 -56
377 -63 423 l-14 82 52 29 c64 36 166 129 206 188 72 103 111 213 124 345 l7
66 422 200 c326 154 425 197 441 190 11 -4 214 -96 450 -203z m-335 -386 c88
-10 200 -36 212 -47 4 -4 -20 -5 -54 -4 l-61 4 52 -59 c28 -32 66 -79 84 -105
29 -43 39 -50 112 -74 63 -21 176 -69 237 -102 4 -2 8 18 10 45 l3 48 53 -70
c112 -148 179 -327 189 -505 l5 -95 -51 75 c-28 41 -53 80 -55 85 -2 6 -53
-39 -114 -100 l-110 -110 19 -179 c10 -99 18 -181 16 -182 -2 -2 -72 -11 -157
-21 -293 -33 -956 -20 -1163 23 l-28 6 2 169 2 169 -84 105 c-46 58 -86 105
-89 105 -3 0 -20 -24 -39 -52 l-33 -53 5 80 c3 44 13 107 21 140 31 116 105
270 162 332 l24 28 -6 -27 c-3 -16 -4 -28 -1 -28 2 0 30 16 62 35 55 32 194
95 212 95 5 0 28 27 52 61 23 33 70 80 103 105 l60 44 -43 0 c-117 1 130 62
276 69 17 0 69 -4 115 -10z m-1580 -1224 c710 -243 1597 -301 2369 -154 258
49 622 157 788 234 l73 34 -2 -391 -3 -391 -115 -49 c-239 -103 -580 -205
-875 -262 -676 -130 -1339 -87 -2049 135 -133 42 -316 110 -418 156 l-58 26 0
388 0 388 66 -30 c37 -16 138 -54 224 -84z m-615 -65 c66 -21 156 -49 200 -62
l80 -24 3 -269 2 -270 43 -19 c122 -53 227 -95 359 -141 l148 -51 45 -92 c24
-51 40 -92 35 -92 -22 0 -266 54 -415 92 -264 67 -659 192 -665 211 -1 5 54
79 122 164 67 86 129 165 136 175 13 18 13 19 -216 377 -27 43 -31 53 -16 47
11 -5 73 -25 139 -46z m4243 -107 c-149 -232 -158 -246 -158 -254 0 -4 61 -85
135 -180 75 -95 132 -176 128 -180 -23 -22 -440 -151 -688 -213 -181 -45 -441
-98 -458 -94 -11 2 -4 24 27 87 l41 83 175 58 c96 32 229 81 295 110 66 28
126 54 133 57 9 4 12 68 12 274 l0 268 58 16 c31 9 131 40 222 70 91 29 168
53 172 54 4 1 -38 -70 -94 -156z m-3195 -784 l98 -23 54 -81 c164 -246 394
-447 674 -588 187 -94 185 -94 372 0 278 140 485 320 672 584 l47 66 102 25
c57 13 105 23 107 22 7 -5 -100 -197 -158 -282 -218 -323 -539 -587 -887 -731
l-72 -29 -100 43 c-312 132 -603 365 -815 652 -97 132 -236 382 -204 370 6 -2
56 -15 110 -28z"/>
<path d="M2245 3138 c-2 -7 -29 -98 -59 -201 l-54 -188 51 -37 c126 -92 255
-185 260 -186 2 0 75 55 162 124 87 69 162 128 167 131 5 3 -17 85 -48 181
l-57 175 -66 7 c-122 11 -351 7 -356 -6z"/>
<path d="M888 2204 c7 -14 1 -49 -27 -137 -29 -96 -41 -121 -61 -133 -14 -7
-19 -13 -12 -14 6 0 12 -6 12 -14 0 -8 25 -19 63 -29 114 -30 165 -27 212 14
41 37 71 121 61 178 -10 62 -104 125 -220 147 -35 6 -37 5 -28 -12z m128 -76
c42 -15 49 -44 29 -113 -18 -63 -63 -108 -104 -103 -14 2 -25 8 -25 13 3 25
58 215 63 215 2 0 19 -5 37 -12z"/>
<path d="M4020 2201 c-51 -16 -53 -18 -34 -29 17 -9 44 -74 44 -105 0 -4 -56
-27 -65 -27 -8 0 -23 89 -19 107 8 31 -5 33 -76 13 -63 -17 -64 -18 -39 -30
19 -9 29 -24 37 -58 9 -40 8 -49 -11 -74 -16 -21 -18 -31 -9 -40 8 -8 15 -8
26 1 8 7 16 8 19 4 13 -21 18 -83 8 -101 -19 -36 8 -45 83 -26 36 9 66 20 66
24 0 4 -11 15 -25 24 -19 13 -45 67 -45 98 0 5 54 28 65 28 1 0 8 -20 15 -44
8 -31 9 -49 2 -63 -22 -40 0 -46 77 -23 39 11 71 24 71 29 0 4 -11 14 -25 21
-20 11 -31 34 -56 114 -16 56 -32 107 -35 114 -2 7 0 22 6 32 7 13 6 19 -6 24
-9 3 -16 6 -17 5 -1 0 -27 -8 -57 -18z"/>
<path d="M3693 2120 c-79 -7 -109 -25 -140 -84 -21 -40 -12 -148 14 -185 37
-49 94 -80 146 -81 76 0 124 37 128 100 4 48 0 62 -16 56 -8 -3 -15 -1 -15 4
0 6 -4 10 -10 10 -5 0 -10 -11 -10 -24 0 -66 -39 -105 -85 -84 -54 25 -93 154
-61 203 21 32 73 35 99 5 25 -29 33 -25 46 24 18 71 25 67 -96 56z m-30 -41
c-41 -12 -46 -21 -54 -89 l-6 -55 -2 53 c-1 44 3 57 24 77 13 14 34 25 47 24
18 -1 17 -3 -9 -10z m-34 -194 c0 -5 -4 -3 -9 5 -5 8 -9 22 -9 30 0 16 17 -16
18 -35z m198 -7 c-3 -7 -5 -2 -5 12 0 14 2 19 5 13 2 -7 2 -19 0 -25z"/>
<path d="M1290 2113 c0 -5 5 -14 12 -21 17 -17 -31 -85 -50 -69 -11 9 -19 5
-38 -18 -23 -29 -23 -30 -3 -37 l20 -8 -20 -29 c-27 -38 -79 -81 -97 -81 -18
0 -18 -15 0 -33 14 -14 134 -43 142 -34 2 2 -1 18 -7 35 -8 24 -7 37 4 59 l15
28 11 -27 c14 -36 26 -41 54 -23 24 15 25 15 30 -12 4 -20 0 -32 -13 -43 -38
-30 -9 -43 157 -71 87 -14 160 -25 162 -23 3 3 -5 17 -16 32 -20 27 -20 29 -3
140 10 68 23 119 33 130 24 27 8 39 -63 47 l-64 7 15 -22 c14 -21 13 -35 -4
-139 -15 -90 -24 -121 -41 -136 l-22 -20 -21 25 c-18 22 -43 87 -43 113 0 4
12 7 26 7 20 0 25 4 20 16 -3 9 -9 26 -12 39 -6 24 -29 39 -44 30 -4 -2 -10
14 -14 36 -5 33 -3 44 11 54 17 13 16 14 -7 23 -14 5 -41 13 -60 16 -19 4 -43
10 -52 12 -10 3 -18 1 -18 -3z m52 -148 c5 -40 -11 -52 -28 -22 -9 16 -9 25 0
39 16 26 23 22 28 -17z m-115 -95 c-7 -17 -13 -26 -15 -21 -3 10 15 51 22 51
3 0 -1 -14 -7 -30z"/>
<path d="M3346 2054 c-76 -13 -141 -25 -143 -28 -3 -2 6 -21 20 -41 16 -24 27
-32 30 -23 4 10 6 10 6 1 1 -18 21 -16 21 2 0 12 28 35 43 35 2 0 12 -52 22
-115 16 -107 16 -117 1 -134 -15 -16 -15 -20 -2 -31 12 -9 30 -9 88 0 l73 13
-31 26 c-28 23 -32 36 -47 128 -10 56 -17 107 -17 113 0 16 41 12 62 -7 24
-22 37 -8 41 42 1 29 -2 40 -13 41 -8 1 -77 -9 -154 -22z"/>
<path d="M2305 2055 c-16 -8 -40 -14 -53 -15 -20 0 -22 -4 -17 -32 5 -28 0
-42 -34 -86 l-39 -53 -27 45 c-21 36 -25 49 -16 60 15 18 3 22 -89 31 l-65 7
21 -23 c12 -13 43 -60 69 -103 41 -71 45 -84 40 -120 -4 -23 -18 -53 -33 -68
-14 -15 -24 -29 -21 -32 9 -8 179 -17 179 -9 0 4 -9 19 -20 33 -12 16 -20 41
-20 68 0 38 9 55 76 145 42 56 85 110 96 119 21 19 18 49 -4 47 -7 0 -26 -7
-43 -14z"/>
<path d="M1724 2021 c18 -20 19 -27 7 -119 -18 -139 -21 -151 -42 -157 -11 -4
-19 -9 -19 -13 1 -25 28 -33 159 -49 165 -19 173 -16 139 51 -11 22 -27 46
-34 54 -12 11 -16 10 -25 -11 -17 -36 -79 -61 -94 -37 -10 16 17 224 31 241
31 35 19 43 -81 54 l-60 7 19 -21z m77 -156 c-8 -68 -17 -123 -19 -120 -9 9
21 245 31 245 2 0 -4 -56 -12 -125z"/>
<path d="M3020 2012 c-64 -4 -75 -9 -61 -26 8 -9 10 -28 5 -51 -5 -28 -11 -36
-24 -32 -12 3 -22 -5 -33 -28 -15 -31 -15 -33 5 -38 15 -4 18 -11 13 -29 -15
-50 -39 -90 -62 -105 -41 -27 -51 -4 -59 124 -5 83 -4 116 5 127 22 26 2 36
-70 36 -69 0 -82 -7 -55 -29 12 -10 11 -23 -11 -88 l-26 -76 -25 68 c-21 57
-23 71 -13 88 18 29 0 37 -86 37 -73 0 -91 -10 -53 -30 18 -10 20 -21 20 -115
0 -109 -11 -151 -42 -160 -10 -4 -18 -13 -18 -21 0 -11 17 -14 80 -14 44 0 80
3 80 6 0 3 -9 17 -20 31 -15 19 -20 40 -20 82 l1 56 25 -65 c54 -144 68 -146
111 -17 l31 92 1 -64 c1 -43 -4 -70 -13 -80 -10 -11 -12 -22 -6 -30 7 -12 33
-13 154 -5 80 5 148 13 152 17 4 4 0 15 -9 25 -10 11 -17 35 -17 57 l0 39 30
-29 30 -29 16 22 c19 28 28 28 42 -2 9 -19 8 -27 -4 -36 -36 -31 0 -44 96 -34
38 3 70 10 70 15 0 4 -14 16 -31 26 -28 16 -69 77 -69 103 0 5 10 10 21 10 21
0 21 1 4 28 -25 39 -46 54 -60 42 -15 -12 -48 54 -40 80 7 22 -6 26 -65 22z
m19 -177 c-17 -17 -41 19 -33 50 l7 28 18 -34 c11 -21 14 -38 8 -44z m-512
-82 c-2 -27 -3 -5 -3 47 0 52 1 74 3 48 2 -27 2 -69 0 -95z m630 101 c-3 -3
-12 -4 -19 -1 -8 3 -5 6 6 6 11 1 17 -2 13 -5z m-199 -99 c-1 -20 -4 -31 -8
-25 -7 11 -2 60 6 60 2 0 3 -16 2 -35z"/>
</g>
</svg>
